# xmcd
#
# Track frame offsets: 
#        150
#        14600
#        29007
#        43847
#        55682
#        70965
#        85155
#        99267
#        113092
#        127172
#        141537
#        156225
#        172617
#        187725
#        199242
#        211322
#        223452
#        235402
#        247352
#        258517
#        271210
#        282980
#        295787
#        308155
#
# Disc length: 4272 seconds
#
# Revision: 0
# Processed by: cddbd v1.5.2PL0 Copyright (c) Steve Scherf et al.
# Submitted via: ExactAudioCopyFreeDBPlugin 1.0
#
DISCID=7710ae18
DTITLE=Various Artist - Texas Piano Vol. 2 (1927-1938)
DYEAR=1994
DGENRE=Blues
TTITLE0=Billiken Johnson - Sunbeam Blues
TTITLE1=Billiken Johnson - Interurban Blues
TTITLE2=Billiken Johnson - Frisco Blues
TTITLE3=Billiken Johnson - Wild Jack Blues
TTITLE4=Texas Bill Day - Goin' Back to My Baby
TTITLE5=Texas Bill Day - Don't Get Love in Your Love
TTITLE6=Texas Bill Day - Good Mornin' Blues
TTITLE7=Texas Bill Day - Burn the Trestle Down
TTITLE8=Texas Bill Day - Elm Street Blues
TTITLE9=Texas Bill Day - Billikin's Weary Blues
TTITLE10=Jack Ranger - Thieving Blues
TTITLE11=Jack Ranger - T. P. Window Blues
TTITLE12=Jack Ranger - Lonesome Grave Blues
TTITLE13=Kitty Gray - I Can't Dance (I Got Ants in My Pants)
TTITLE14=Kitty Gray - Round and Round
TTITLE15=Kitty Gray - You're Standing on the Outside Now
TTITLE16=Kitty Gray - Swingology
TTITLE17=Kitty Gray - My Baby's Ways
TTITLE18=Kitty Gray - Baton Rouge Rag
TTITLE19=Kitty Gray - Weeping Willow Swing
TTITLE20=Kitty Gray - Gettin' Away
TTITLE21=Kitty Gray - Posin'
TTITLE22=Kitty Gray - Doing the Dooga
TTITLE23=Kitty Gray - I'm Yours to Command
EXTD=
EXTT0=
EXTT1=
EXTT2=
EXTT3=
EXTT4=
EXTT5=
EXTT6=
EXTT7=
EXTT8=
EXTT9=
EXTT10=
EXTT11=
EXTT12=
EXTT13=
EXTT14=
EXTT15=
EXTT16=
EXTT17=
EXTT18=
EXTT19=
EXTT20=
EXTT21=
EXTT22=
EXTT23=
PLAYORDER=
